<?xml version="1.0" encoding="utf-8"?>
<!-- Generated by IcoMoon.io -->
<!DOCTYPE svg PUBLIC "-//W3C//DTD SVG 1.1//EN" "http://www.w3.org/Graphics/SVG/1.1/DTD/svg11.dtd">
<svg version="1.1" xmlns="http://www.w3.org/2000/svg" xmlns:xlink="http://www.w3.org/1999/xlink" width="78" height="64" viewBox="0 0 78 64">
<path fill="#000000" d="M78 38.876v11.124c0 2.208-1.792 4-4 4h-70c-2.208 0-4-1.792-4-4v-11c3.314 0 6-2.688 6-6 0-3.314-2.686-6-6-6v-11c0-2.208 1.792-4 4-4h70c2.208 0 4 1.792 4 4v10.876c-3.314 0-6 2.686-6 6 0 3.312 2.686 6 6 6zM68 22c0-2.208-1.792-4-4-4h-50c-2.208 0-4 1.792-4 4v22c0 2.208 1.792 4 4 4h50c2.208 0 4-1.792 4-4v-22zM64 46h-50c-1.106 0-2-0.896-2-2v-22c0-1.106 0.894-2 2-2h50c1.104 0 2 0.894 2 2v22c0 1.104-0.896 2-2 2zM24.94 31.076l-1.814-5.16-1.814 5.16-5.228 0.22 4.108 3.408-1.418 5.296 4.352-3.052 4.35 3.052-1.416-5.294 4.106-3.408-5.226-0.222zM40.94 31.076l-1.814-5.16-1.814 5.16-5.228 0.22 4.108 3.408-1.418 5.296 4.352-3.052 4.35 3.052-1.416-5.294 4.106-3.408-5.226-0.222zM56.94 31.076l-1.814-5.16-1.814 5.16-5.226 0.22 4.106 3.408-1.418 5.296 4.352-3.052 4.35 3.052-1.416-5.294 4.106-3.408-5.226-0.222z"></path>
</svg>
